<?xml version="1.0" standalone="no"?>
<!DOCTYPE svg PUBLIC "-//W3C//DTD SVG 20010904//EN"
 "http://www.w3.org/TR/2001/REC-SVG-20010904/DTD/svg10.dtd">
<svg version="1.0" xmlns="http://www.w3.org/2000/svg"
 width="1304.000000pt" height="1304.000000pt" viewBox="0 0 1304.000000 1304.000000"
 preserveAspectRatio="xMidYMid meet">
<metadata>
Created by potrace 1.14, written by Peter Selinger 2001-2017
</metadata>
<g transform="translate(0.000000,1304.000000) scale(0.100000,-0.100000)"
fill="#000000" stroke="none">
<path d="M0 9331 c0 -72 3 -132 8 -135 4 -2 36 -7 72 -11 102 -10 142 -17 210
-35 25 -7 53 -14 63 -16 46 -8 171 -82 220 -128 69 -67 127 -164 141 -236 1
-3 4 -9 8 -15 3 -5 9 -35 14 -65 4 -30 9 -64 10 -75 6 -35 5 -3879 0 -3915 -3
-19 -8 -51 -10 -72 -6 -41 -32 -120 -52 -159 -7 -15 -10 -29 -7 -33 4 -3 1 -6
-5 -6 -6 0 -14 -10 -17 -21 -4 -12 -37 -51 -72 -87 -99 -98 -223 -151 -418
-177 -91 -12 -151 -19 -157 -17 -5 1 -8 -59 -8 -133 l0 -135 661 0 c364 0 663
-1 665 -2 1 -2 109 -1 239 2 130 3 238 3 240 0 2 -3 48 -4 104 -2 l100 3 0
129 c-1 145 5 134 -84 145 -45 5 -109 15 -200 31 -40 7 -151 51 -195 77 -164
97 -257 256 -276 472 -7 84 -11 4065 -4 4065 3 0 32 -66 64 -148 33 -81 70
-170 83 -199 13 -28 23 -54 23 -58 0 -3 17 -47 39 -98 21 -51 71 -173 111
-272 81 -202 89 -221 119 -287 11 -26 21 -52 21 -58 0 -6 4 -18 9 -28 14 -27
33 -71 126 -302 47 -118 92 -228 99 -245 8 -16 47 -111 86 -210 40 -99 80
-198 90 -220 10 -22 46 -110 80 -195 34 -85 71 -175 82 -200 11 -24 21 -49 23
-55 1 -5 7 -21 13 -35 17 -42 33 -85 33 -88 -1 -1 10 -25 24 -52 14 -27 26
-53 26 -57 1 -8 4 -15 39 -103 23 -58 106 -261 120 -295 14 -32 52 -125 154
-380 53 -132 101 -249 106 -260 22 -46 101 -241 105 -259 3 -11 9 -24 15 -30
5 -5 10 -16 10 -23 0 -7 9 -33 20 -58 11 -25 29 -65 40 -90 11 -25 20 -49 20
-53 0 -5 6 -22 14 -38 8 -16 38 -87 66 -159 52 -132 131 -325 155 -380 12 -27
63 -153 86 -214 8 -21 12 -22 23 -10 7 8 45 95 85 194 40 99 80 193 87 209 8
16 14 32 14 36 0 4 10 29 22 56 12 27 23 51 23 54 1 3 7 18 13 33 7 16 12 30
12 33 0 2 9 23 19 47 11 23 52 121 91 217 39 96 80 194 91 217 10 24 19 45 19
47 0 3 5 17 12 33 6 15 12 30 13 33 2 6 17 42 40 95 9 22 18 45 19 50 2 6 11
28 20 50 10 22 33 78 53 125 19 47 44 108 55 135 11 28 24 59 28 70 5 11 17
41 29 67 12 26 21 50 21 53 0 3 9 24 19 48 10 23 33 76 50 118 17 42 36 90 42
105 7 16 13 31 14 34 1 3 6 16 12 30 6 14 41 98 77 188 37 89 77 187 91 217
13 31 24 56 24 58 -1 6 85 216 109 267 9 19 17 40 18 47 1 7 13 37 27 67 14
30 23 57 19 60 -3 3 0 6 6 6 7 0 12 6 12 14 0 13 52 145 96 241 7 17 63 154
125 305 61 151 141 345 176 430 36 85 66 160 67 165 1 6 12 32 24 59 12 27 22
51 22 55 1 3 9 24 20 46 11 22 19 43 20 47 0 3 10 28 22 55 11 26 22 53 23 58
2 6 11 31 22 55 25 55 35 82 38 95 2 8 28 71 76 180 5 11 21 52 37 90 45 115
38 109 136 110 99 0 97 4 52 -100 -15 -33 -32 -71 -38 -85 -6 -14 -17 -37 -25
-52 -7 -15 -13 -29 -13 -30 2 -4 -11 -38 -35 -93 -15 -37 -16 -176 -17 -1882
0 -2070 6 -1914 -76 -2082 -21 -43 -136 -161 -157 -161 -8 0 -15 -3 -15 -8 0
-4 -15 -13 -32 -20 -18 -8 -42 -17 -53 -22 -34 -15 -88 -29 -130 -35 -22 -4
-51 -8 -65 -10 -14 -3 -60 -7 -103 -11 -43 -3 -86 -7 -95 -9 -9 -2 -19 -4 -22
-4 -3 -1 -5 -60 -5 -131 l0 -131 213 1 c118 1 215 0 217 -2 2 -2 110 -1 240 2
130 3 238 3 240 0 2 -3 110 -3 240 0 130 3 238 3 240 0 2 -3 110 -3 240 0 130
3 238 3 240 0 2 -3 110 -3 240 0 130 3 238 3 240 0 2 -3 101 -3 222 0 l218 5
0 129 c0 107 -3 129 -15 131 -8 1 -52 5 -98 9 -158 13 -194 20 -290 52 -44 14
-119 53 -149 77 -76 60 -151 171 -167 249 -4 16 -7 29 -7 30 -23 62 -25 256
-23 2128 0 1097 4 2013 8 2035 17 105 21 117 59 193 54 108 146 189 266 231
35 13 69 24 75 26 84 17 128 23 223 31 48 3 94 7 102 9 14 2 16 22 18 133 l2
132 -1129 0 -1128 0 -77 -192 c-42 -106 -83 -206 -90 -223 -7 -16 -18 -43 -23
-60 -6 -16 -31 -79 -57 -140 -25 -60 -45 -111 -45 -113 0 -1 -8 -23 -20 -48
-11 -26 -20 -48 -20 -51 0 -2 -7 -20 -17 -41 -9 -20 -17 -39 -17 -42 -2 -7
-26 -70 -41 -105 -7 -16 -36 -88 -64 -160 -28 -71 -56 -139 -60 -150 -5 -11
-32 -78 -60 -150 -28 -71 -56 -138 -61 -147 -6 -10 -10 -22 -10 -28 0 -6 -9
-29 -20 -53 -10 -23 -33 -78 -50 -122 -17 -44 -35 -89 -39 -100 -5 -11 -19
-45 -31 -75 -11 -30 -25 -64 -30 -75 -5 -11 -21 -51 -35 -89 -14 -38 -30 -75
-35 -81 -5 -6 -11 -20 -13 -31 -4 -20 -9 -34 -57 -146 -17 -40 -31 -75 -32
-78 -1 -8 -15 -44 -48 -122 -17 -40 -31 -73 -30 -73 2 0 -18 -51 -50 -127 -17
-40 -31 -75 -32 -78 -1 -6 -1 -7 -103 -260 -48 -118 -87 -221 -88 -227 0 -7
-4 -13 -9 -13 -4 0 -8 -7 -8 -15 0 -8 -9 -34 -19 -58 -10 -23 -49 -118 -86
-212 -37 -93 -73 -183 -80 -200 -25 -59 -31 -77 -34 -97 -2 -15 -34 47 -78
153 -36 85 -35 88 12 194 15 33 36 80 46 105 11 25 24 53 29 62 14 25 12 48
-5 82 -8 15 -15 32 -15 37 0 5 -10 32 -23 61 -13 29 -32 73 -42 98 -10 25 -23
59 -31 75 -7 17 -27 66 -44 110 -17 44 -38 94 -45 110 -7 17 -28 66 -45 110
-18 44 -59 145 -92 225 -33 80 -61 150 -62 155 -1 6 -10 26 -18 45 -20 43 -41
93 -43 100 -1 3 -7 19 -14 35 -6 17 -23 59 -37 95 -15 36 -33 79 -42 95 -9 17
-14 30 -12 30 2 0 -4 16 -12 35 -17 39 -19 44 -143 350 -48 118 -93 229 -100
245 -7 17 -22 53 -34 82 -11 28 -26 64 -33 80 -6 15 -12 33 -13 38 -2 6 -13
33 -25 60 -13 28 -33 78 -46 112 -13 35 -28 71 -34 80 -5 10 -21 50 -36 88
-14 39 -32 84 -40 100 -24 55 -96 230 -98 240 -2 6 -8 21 -13 35 -6 14 -23 54
-37 90 -15 36 -31 75 -36 88 -23 52 -30 70 -51 122 -12 30 -30 74 -40 97 -11
24 -19 47 -19 53 0 7 -383 10 -1155 10 l-1155 0 0 -129z"/>
<path d="M7851 9325 c0 -74 4 -135 7 -136 4 0 23 -2 42 -4 248 -19 254 -20
328 -39 192 -49 329 -190 357 -366 2 -8 6 -40 11 -70 9 -64 10 -4018 1 -4101
-21 -184 -109 -321 -252 -392 -91 -45 -161 -61 -328 -73 -105 -8 -149 -11
-159 -13 -4 0 -7 -62 -7 -136 l-1 -135 577 0 c316 0 577 -1 578 -2 2 -2 110
-1 240 2 130 3 238 3 240 0 2 -3 110 -3 240 0 130 3 238 3 240 0 2 -3 110 -3
240 0 130 3 238 3 240 0 2 -3 110 -3 240 0 130 3 238 3 240 0 2 -3 110 -3 240
0 130 3 238 4 239 2 4 -3 1339 -3 1342 1 3 2 11 61 19 127 6 51 14 113 20 150
2 14 6 48 10 75 3 28 7 59 9 70 2 11 7 45 10 76 4 31 8 66 11 77 2 12 6 47 10
78 3 32 8 60 9 63 2 3 7 40 11 81 4 41 8 77 10 80 2 3 6 33 10 67 3 34 8 72
10 84 4 21 14 96 20 149 1 14 5 43 8 65 4 22 9 59 12 83 8 68 16 125 20 152 3
14 7 48 10 75 3 28 7 61 10 75 4 14 8 45 10 70 3 25 6 56 8 70 2 14 7 53 12
88 l7 62 -149 1 c-81 1 -155 0 -163 -1 -20 -3 -38 -29 -45 -70 -4 -19 -11 -41
-17 -47 -6 -7 -8 -13 -4 -13 4 0 0 -13 -9 -30 -9 -16 -13 -30 -10 -30 3 0 -1
-16 -9 -35 -9 -20 -16 -39 -17 -43 -13 -55 -97 -302 -136 -397 -54 -133 -167
-346 -193 -365 -4 -3 -19 -24 -33 -46 -53 -86 -295 -304 -336 -304 -5 0 -11
-3 -13 -8 -12 -28 -275 -119 -398 -138 -98 -14 -164 -15 -993 -17 l-857 -2 -1
55 c-1 30 -1 59 1 65 1 5 2 22 2 37 l1 28 154 2 155 3 2 2155 2 2155 21 76
c12 43 38 103 59 135 37 59 140 154 166 154 8 0 18 4 24 9 9 9 91 37 135 47
35 8 200 23 302 28 15 1 31 6 35 13 4 6 7 67 6 135 l0 123 -1417 3 -1417 2 1
-135z"/>
</g>
</svg>
